<svg width="151" height="151" viewBox="0 0 151 151" fill="none" xmlns="http://www.w3.org/2000/svg">
<mask id="mask0_22_329" style="mask-type:alpha" maskUnits="userSpaceOnUse" x="0" y="0" width="151" height="151">
<circle cx="75.5" cy="75.5" r="75.5" fill="#D9D9D9"/>
</mask>
<g mask="url(#mask0_22_329)">
<circle cx="75.5" cy="75.5" r="75.5" fill="#FED42B"/>
<path fill-rule="evenodd" clip-rule="evenodd" d="M44.1502 168.607C56.5714 169.659 75.4459 170.245 97.3324 168.854C89.231 169.561 80.6348 169.992 71.7179 169.992C61.7821 169.992 52.5542 169.459 44.1502 168.607Z" fill="black"/>
<path d="M56.2205 80.3329L-9.70752 156.765C-9.70752 156.765 2.77277 161.935 24.2226 165.81C29.0272 159.588 38.6775 156.851 48.5353 154.056C49.4342 142.731 79.4476 145.248 71.7246 132.305C64.0016 119.362 48.1758 115.227 55.7258 103.363C63.2758 91.4987 83.9484 78.9779 78.9151 70.4813C77.6912 70.2423 76.416 70.1071 75.0972 70.1071C63.7837 70.107 56.2205 80.3329 56.2205 80.3329Z" fill="black"/>
<path fill-rule="evenodd" clip-rule="evenodd" d="M94.5177 80.0618L160.82 156.709C160.82 156.709 134.198 165.637 97.3324 168.854C75.4459 170.245 56.5714 169.659 44.1502 168.607C36.8628 167.868 30.195 166.889 24.2226 165.81C29.0272 159.588 38.6775 156.851 48.5353 154.056L109.295 151.539L116.126 140.933C115.047 129.608 107.677 117.025 88.4425 117.025C74.1589 117.025 68.6687 111.452 68.6687 103.723C68.6687 100.92 71.6293 97.9028 74.9924 94.4753C80.9054 88.4493 88.0628 81.1551 82.5626 71.5297C84.3974 72.2263 86.0695 73.117 87.5437 74.059C89.8903 75.5585 91.7352 77.1878 92.9365 78.37C93.9613 79.3786 94.5177 80.0618 94.5177 80.0618Z" fill="black"/>
<path d="M71.7246 132.305C79.4476 145.248 49.4342 142.731 48.5353 154.056L109.295 151.539L116.126 140.933C115.047 129.608 107.677 117.025 88.4425 117.025C74.1589 117.025 68.6687 111.452 68.6687 103.723C68.6687 100.92 71.6293 97.9028 74.9924 94.4753C80.9054 88.4493 88.0628 81.1551 82.5626 71.5297C81.4082 71.0915 80.1895 70.7302 78.9151 70.4813C83.9484 78.9779 63.2758 91.4987 55.7258 103.363C48.1758 115.227 64.0016 119.362 71.7246 132.305Z" fill="#FED42B"/>
<path d="M160.82 156.709L94.5177 80.0618C94.5177 80.0618 93.9613 79.3786 92.9365 78.37C91.7352 77.1878 89.8903 75.5585 87.5437 74.059C86.0695 73.117 84.3974 72.2263 82.5626 71.5297M160.82 156.709C160.82 156.709 121.212 169.992 71.7179 169.992M160.82 156.709C160.82 156.709 134.198 165.637 97.3324 168.854M-9.70752 156.765L56.2205 80.3329C56.2205 80.3329 63.7837 70.107 75.0972 70.1071C76.416 70.1071 77.6912 70.2423 78.9151 70.4813M-9.70752 156.765C-9.70752 156.765 -4.44484 168.255 21.3846 172.156M-9.70752 156.765C-9.70752 156.765 2.77277 161.935 24.2226 165.81M71.7179 169.992C80.6348 169.992 89.231 169.561 97.3324 168.854M71.7179 169.992C61.7821 169.992 52.5542 169.459 44.1502 168.607M21.3846 172.156C24.0302 172.691 38.4207 168.122 44.1502 168.607M21.3846 172.156C25.3821 172.76 39.6658 168.152 44.1502 168.607M21.3846 172.156C21.8525 169.693 22.8356 167.607 24.2226 165.81M97.3324 168.854C75.4459 170.245 56.5714 169.659 44.1502 168.607M82.5626 71.5297C81.4082 71.0915 80.1895 70.7302 78.9151 70.4813M82.5626 71.5297C88.0628 81.1551 80.9054 88.4493 74.9924 94.4753C71.6293 97.9028 68.6687 100.92 68.6687 103.723C68.6687 111.452 74.1589 117.025 88.4425 117.025C107.677 117.025 115.047 129.608 116.126 140.933L109.295 151.539L48.5353 154.056M48.5353 154.056C49.4342 142.731 79.4476 145.248 71.7246 132.305C64.0016 119.362 48.1758 115.227 55.7258 103.363C63.2758 91.4987 83.9484 78.9779 78.9151 70.4813M48.5353 154.056C38.6775 156.851 29.0272 159.588 24.2226 165.81M44.1502 168.607C36.8628 167.868 30.195 166.889 24.2226 165.81" stroke="black" stroke-width="3.95476" stroke-linecap="round" stroke-linejoin="round"/>
<path fill-rule="evenodd" clip-rule="evenodd" d="M75 37C76.1046 37 77 37.8954 77 39V70H73V39C73 37.8954 73.8954 37 75 37V37Z" fill="black"/>
<path d="M75 40H94H98.6716C100.453 40 101.346 42.1543 100.086 43.4142L95.4142 48.0858C94.6332 48.8668 94.6332 50.1332 95.4142 50.9142L100.086 55.5858C101.346 56.8457 100.453 59 98.6716 59H94H75V40Z" fill="black"/>
</g>
</svg>
